<?xml version="1.0" encoding="utf-8"?>
<!-- Generator: Adobe Illustrator 16.0.3, SVG Export Plug-In . SVG Version: 6.00 Build 0)  -->
<!DOCTYPE svg PUBLIC "-//W3C//DTD SVG 1.1//EN" "http://www.w3.org/Graphics/SVG/1.1/DTD/svg11.dtd">
<svg version="1.1" id="Capa_1" xmlns="http://www.w3.org/2000/svg" xmlns:xlink="http://www.w3.org/1999/xlink" x="0px" y="0px"
	 width="708.66px" height="708.66px" viewBox="0 0 708.66 708.66" enable-background="new 0 0 708.66 708.66" xml:space="preserve">
<path fill="#D8D9DD" d="M166.343,192.552c0,0-10.56,2.226-20.965,9.805c-10.407,7.579-14.324,19.46-13.559,25.391
	c3.145-5.265,9.575-11.035,16.864-10.74c7.289,0.294,12.084,11.055,9.096,15.398c-2.989,4.345-11.097,7.462-16.005,11.952
	c-4.506,4.124-7.861,12.103-8.909,18.252c-1.372,8.054-6.481,15.113-14.831,16.177c11.534,4.569,23.831-0.912,29.848-9.831
	c3.533-5.235,6.748-10.584,9.91-13.7c5.121-5.047,9.503-7.141,15.333-6.622c5.83,0.52,8.558,4.51,8.044,9.066
	c-0.694,6.155-10.199,8.442-14.181,11.671c-3.983,3.227-8.39,12.42-4.291,19.63c0.565-2.626,2.612-6.304,7.437-8.914
	c4.825-2.61,19.57,0.67,28.865-1.564s20.787-4.442,36.561-17.027c0,0,8.519-20.223-6.021-41.223S192.186,183.332,166.343,192.552z"
	/>
<g>
	<path fill="#D8D9DD" d="M319.608,160.576c0.53-0.507,1.12-0.967,1.782-1.352c4.508-2.621,10.286-1.09,12.907,3.419
		c2.62,4.508,1.088,10.286-3.42,12.905c-4.508,2.621-10.286,1.091-12.906-3.417c-1.47-2.528-1.633-5.458-0.698-8.004l7.911,5.449
		c0.7,0.481,1.586,0.488,2.274,0.087c0.263-0.152,0.496-0.364,0.68-0.631c0.666-0.967,0.421-2.289-0.544-2.955L319.608,160.576z"/>
	<path fill="#D8D9DD" d="M263.642,184.158c0.956-0.557,2.182-0.231,2.737,0.725l3.16,5.436c0.556,0.956,0.23,2.182-0.726,2.736
		L236.2,212.008c-2.37,1.379-5.478,0.793-7.006-1.48c-1.673-2.496-0.874-5.842,1.682-7.328L263.642,184.158z"/>
	<path fill="#D8D9DD" d="M209.28,240.779l30.046-17.463c2.458-1.43,5.608-0.594,7.035,1.863c1.428,2.457,0.594,5.605-1.864,7.033
		l-29.894,17.375c-2.369,1.377-5.477,0.791-7.003-1.484C205.924,245.611,206.725,242.264,209.28,240.779z"/>
	<path fill="#D8D9DD" d="M185.416,211.248c-2.369,1.377-5.478,0.793-7.006-1.482c-1.673-2.494-0.872-5.842,1.683-7.326l14.709-8.549
		c2.458-1.428,5.607-0.593,7.036,1.864c1.427,2.456,0.593,5.605-1.864,7.033L185.416,211.248z"/>
	<path fill="#D8D9DD" d="M185.567,229.533l30.048-17.463c2.457-1.428,5.606-0.594,7.034,1.861c1.428,2.457,0.594,5.607-1.863,7.035
		l-29.896,17.377c-2.369,1.375-5.477,0.791-7.005-1.484C182.212,234.363,183.012,231.018,185.567,229.533z"/>
	<path fill="#D8D9DD" d="M161.427,190.158l41.922-24.364c2.457-1.428,5.606-0.594,7.033,1.863c1.429,2.456,0.594,5.605-1.862,7.034
		l-41.771,24.275c-2.368,1.378-5.476,0.793-7.004-1.484C158.071,194.99,158.871,191.643,161.427,190.158z"/>
	<path fill="#D8D9DD" d="M253.14,241.004l43.655-25.371c-5.588-0.486-11.081-1.764-16.302-3.793l-13.591,7.898
		c-2.458,1.426-5.607,0.592-7.035-1.863c-1.428-2.457-0.593-5.605,1.864-7.035l28.243-16.415c0.14-0.081,0.285-0.145,0.431-0.195
		l4.787-2.784c2.887-1.676,4.781-4.652,5.078-7.979l-1.118-17.806c0.233-2.621-1.535-5-4.113-5.532l-4.346,0.068
		c2.798-3.293,2.814-8.34-0.312-11.639l1.383-2.003l14.183,9.769c-0.688,1.27-1.286,2.654-1.739,4.155
		c-1.854,6.127-0.901,12.729,2.834,19.619c0.56,1.031,1.848,1.414,2.88,0.854c0.019-0.011,0.038-0.021,0.057-0.031
		c0.469-0.272,0.791-0.702,0.947-1.185c5.974,7.374,16.591,9.505,25.053,4.587c9.355-5.437,12.53-17.427,7.094-26.781
		c-4.954-8.523-15.346-11.913-24.228-8.339c0.833-0.62,1.113-1.75,0.615-2.691c-0.548-1.038-1.833-1.434-2.87-0.886
		c-0.265,0.142-4.64,2.5-8.302,7.151l-13.455-9.269c0.407-0.085,0.808-0.235,1.188-0.455l2.653-1.542l-4.032-6.938l-2.654,1.542
		c-1.474,0.857-2.194,2.507-1.944,4.095l-5.961-4.106l2.296-1.335c1.128-0.655,1.841-1.824,1.907-3.127
		c0.065-1.303-0.525-2.538-1.581-3.304l-3.411-2.473c-2.469-1.79-5.768-1.956-8.404-0.424l-4.406,2.561
		c-1.014,0.589-1.358,1.89-0.77,2.904c0.59,1.015,1.89,1.359,2.904,0.77l5.83,2.79c1.184-0.688,1.243-5.964,2.352-5.161l2.905,2.106
		l-8.521,4.952l-4.541-1.842c-2.972-1.206-6.401-0.963-9.175,0.648l-2.39,1.389c-1.014,0.589-1.359,1.89-0.77,2.903
		c0.59,1.015,1.891,1.359,2.904,0.77l2.391-1.389c1.645-0.956,3.68-1.1,5.442-0.385l4.727,1.917
		c1.093,0.443,2.354,0.354,3.374-0.239l2.875-1.671l8.245,5.678l-1.526,2.208c-2.865-0.831-6.593-0.334-10.365,2.542
		c-1.88,1.433-5.072,4.808-7.907,7.888c-2.427,2.633-3.425,6.169-2.899,9.56c-1.241,0.007-2.497,0.32-3.646,0.988
		c0,0-15.632,8.957-15.651,8.903l-31.264,18.171c-2.457,1.428-5.606,0.593-7.034-1.864c-1.428-2.456-0.594-5.606,1.863-7.032
		l33.88-19.691c-0.54-3.606-0.74-7.23-0.607-10.829l-14.879,8.647c-2.458,1.429-5.607,0.595-7.035-1.863
		c-1.428-2.457-0.594-5.606,1.864-7.034l22.005-12.789c0.925-3.472,2.168-6.856,3.714-10.112l-44.749,26.008
		c-2.458,1.427-5.607,0.594-7.035-1.863c-1.428-2.458-0.594-5.606,1.863-7.035l73.209-42.548c0.084-0.049,0.173-0.08,0.259-0.118
		c28.055-16.292,64.008-6.765,80.311,21.288c16.307,28.057,6.78,64.023-21.278,80.33c-1.964,1.141-3.969,2.148-6.002,3.039
		l-67.045,38.967c-2.457,1.43-5.606,0.594-7.035-1.863S250.684,242.434,253.14,241.004z"/>
	<circle fill="#D8D9DD" cx="243.666" cy="137.771" r="9.962"/>
	<circle fill="#D8D9DD" cx="288.334" cy="216.271" r="9.962"/>
</g>
<path fill="#FD0100" d="M229.333,130.818l-57.667,33.816v22.47v0.003l-22.828,12.808c-3.342,1.875-4.533,6.106-2.657,9.447
	c1.876,3.343,6.105,4.531,9.447,2.656l16.038-9.07c3.342-1.875,7.573-0.686,9.448,2.657c1.875,3.343,0.685,7.572-2.656,9.447
	l-15.664,8.857c-2.757,2.051-3.634,5.877-1.908,8.954c1.874,3.342,6.104,4.531,9.447,2.657l5.259-2.942l0.03,0.02l8.347-4.724
	c3.342-1.874,7.572-0.685,9.448,2.658c1.875,3.342,0.685,7.571-2.658,9.445l-1.803,1.021l0.038,0.023l-8.601,4.821L176,248.33
	c-0.119,0.066-0.24,0.12-0.361,0.18l-3.184,1.784c-3.341,1.875-4.532,6.105-2.658,9.448c1.876,3.342,6.106,4.532,9.448,2.654
	l14.726-8.254l15.75-8.859c3.341-1.876,7.571-0.686,9.447,2.655c1.875,3.344,0.686,7.573-2.657,9.447l-0.816,0.459l0.035,0.022
	l-10.322,5.79c-3.341,1.874-4.532,6.104-2.657,9.447c1.875,3.341,6.105,4.531,9.447,2.656l16.894-9.475l59.242-33.848v-67.022
	L229.333,130.818z"/>
<polygon fill="#BA0100" points="288.333,165.417 288.333,232.438 229.219,266.156 229.54,199.704 "/>
<path fill="#FD0100" d="M141.25,252.438c-3.342,1.874-7.571,0.685-9.446-2.658l0,0c-1.876-3.342-0.686-7.572,2.656-9.447
	l14.069-8.057c3.342-1.875,7.572-0.685,9.447,2.657l0,0c1.876,3.343,0.685,7.572-2.656,9.447L141.25,252.438z"/>
<path fill="#FD0100" d="M144.555,280.771c-3.342,1.874-7.571,0.685-9.446-2.658l0,0c-1.876-3.342-0.686-7.572,2.656-9.447
	l4.179-2.393c3.342-1.875,7.572-0.685,9.447,2.657l0,0c1.876,3.343,0.685,7.572-2.656,9.447L144.555,280.771z"/>
<polygon fill="#FFFFFF" points="271.98,167.731 229.66,192.551 187.1,167.591 229.41,142.771 "/>
<g>
	<g>
		<path fill="#FFFFFF" d="M265.834,223.017v19.188l-11,6.337v-19.055L265.834,223.017 M268.834,217.771l-17,10v25.961l17-9.794
			V217.771L268.834,217.771z"/>
	</g>
	<g>
		<path fill="#FFFFFF" d="M265.834,192.267v12.289l-11,6.471v-12.289L265.834,192.267 M268.834,187.021l-17,10v19.25l17-10V187.021
			L268.834,187.021z"/>
	</g>
	<polygon fill="#FFFFFF" points="268.834,242.521 268.834,243.938 251.834,253.732 251.834,242.521 	"/>
	<polygon fill="#FFFFFF" points="268.834,205.896 268.834,206.271 251.834,216.271 251.834,205.896 	"/>
</g>
<rect x="375.712" y="99.693" width="3" height="187"/>
<text transform="matrix(1 0 0 1 393.7129 160.2959)" font-family="'AvantGardeITCbyBT-Demi'" font-size="51.2813">ARDUZ</text>
<text transform="matrix(1 0 0 1 391.8154 205.0264)" font-family="'AvantGardeITCbyBT-Book'" font-size="51.2813">express</text>
<text transform="matrix(1 0 0 1.07 393.166 257.7407)" font-family="'CenturyGothic'" font-size="10">courier, mensajeria y transporte.</text>
<g>
	<defs>
		<polygon id="SVGID_1_" points="187.1,164.591 229.66,189.551 271.98,164.731 271.98,116.521 188.25,116.521 		"/>
	</defs>
	<clipPath id="SVGID_2_">
		<use xlink:href="#SVGID_1_"  overflow="visible"/>
	</clipPath>
	<polygon clip-path="url(#SVGID_2_)" fill="#FFFFFF" points="229.54,126.771 192.5,147.733 192.5,168.438 229.54,190.771 
		267.167,168.605 267.333,147.733 	"/>
	<g clip-path="url(#SVGID_2_)">
		<polygon points="236.275,170.299 232.526,172.47 232.526,211.471 266.286,191.979 266.286,152.977 		"/>
		<polygon points="242.385,135.325 229.401,127.809 194.704,147.839 207.705,155.355 		"/>
		<polygon points="264.082,147.839 249.119,139.317 214.439,159.347 216.418,160.372 229.401,167.87 242.315,160.423 		"/>
		<polygon points="211.818,173.685 205.604,170.491 205.604,160.562 192.795,153.186 192.795,191.91 226.312,211.263 
			226.312,172.539 211.818,164.19 		"/>
	</g>
</g>
<rect x="391.815" y="220.385" width="181.185" height="17.059"/>
<text transform="matrix(1 0 0 1 395.167 234.7363)" fill="#FFFFFF" font-family="'AllerDisplay'" font-size="13.909">experiencia y seguridad.</text>
</svg>
